# Blender 3.3.0
# www.blender.org
mtllib chair.mtl
o Cube
v -1.000000 4.154151 1.000000
v -1.000000 4.341017 1.000000
v -1.000000 4.154151 -1.000000
v -1.000000 4.341017 -1.000000
v 1.000000 4.154151 1.000000
v 1.000000 4.341017 1.000000
v 1.000000 4.154151 -1.000000
v 1.000000 4.341017 -1.000000
v -1.000000 4.154151 -0.696000
v -1.000000 4.341017 -0.696000
v 1.000000 4.154151 -0.696000
v 1.000000 4.341017 -0.696000
v -1.000000 6.064396 -0.696000
v -1.000000 6.064396 -1.000000
v 1.000000 6.064396 -1.000000
v 1.000000 6.064396 -0.696000
vn -1.0000 -0.0000 -0.0000
vn -0.0000 -0.0000 -1.0000
vn 1.0000 -0.0000 -0.0000
vn -0.0000 -0.0000 1.0000
vn -0.0000 -1.0000 -0.0000
vn -0.0000 1.0000 -0.0000
vt 0.375000 1.000000
vt 0.125000 0.750000
vt 0.375000 0.000000
vt 0.625000 1.000000
vt 0.875000 0.750000
vt 0.625000 0.000000
vt 0.375000 0.250000
vt 0.125000 0.500000
vt 0.625000 0.250000
vt 0.375000 0.750000
vt 0.625000 0.750000
vt 0.375000 0.500000
vt 0.625000 0.500000
vt 0.125000 0.538000
vt 0.375000 0.212000
vt 0.625000 0.212000
vt 0.875000 0.538000
vt 0.375000 0.538000
vt 0.625000 0.538000
vt 0.625000 0.212000
vt 0.875000 0.538000
vt 0.875000 0.500000
vt 0.625000 0.250000
vt 0.625000 0.500000
vt 0.625000 0.538000
s 0
f 9/15/1 10/16/1 4/9/1 3/7/1
f 3/7/2 4/9/2 8/13/2 7/12/2
f 11/18/3 12/19/3 6/11/3 5/10/3
f 5/10/4 6/11/4 2/4/4 1/1/4
f 9/14/5 11/18/5 5/10/5 1/2/5
f 12/19/6 10/17/6 2/5/6 6/11/6
f 12/19/3 8/13/3 15/24/3 16/25/3
f 3/8/5 7/12/5 11/18/5 9/14/5
f 7/12/3 8/13/3 12/19/3 11/18/3
f 1/3/1 2/6/1 10/16/1 9/15/1
f 15/24/6 14/22/6 13/21/6 16/25/6
f 4/9/1 10/16/1 13/20/1 14/23/1
f 8/13/2 4/9/2 14/23/2 15/24/2
f 10/17/4 12/19/4 16/25/4 13/21/4
